<svg width="138" height="44" viewBox="0 0 138 44" fill="none" xmlns="http://www.w3.org/2000/svg">
<rect x="1.61993" y="1.61993" width="133.868" height="40.7601" rx="3.93412" stroke="#3A06CE" stroke-width="3.23986"/>
<path d="M7.20455 32V27.7366H15.4013C15.7497 27.7366 16.0431 27.6633 16.2815 27.5166C16.5382 27.3699 16.7399 27.1681 16.8866 26.9114C17.0333 26.6547 17.1066 26.3796 17.1066 26.0863C17.1066 25.7745 17.0333 25.4903 16.8866 25.2336C16.7399 24.9769 16.5382 24.7751 16.2815 24.6284C16.0431 24.4818 15.7497 24.4084 15.4013 24.4084H12.6782C11.523 24.4084 10.4777 24.1792 9.54254 23.7208C8.60734 23.2623 7.85552 22.6114 7.28706 21.7678C6.73695 20.906 6.46189 19.8699 6.46189 18.6597C6.46189 17.4678 6.72778 16.4317 7.25956 15.5515C7.79134 14.653 8.50649 13.9654 9.40501 13.4886C10.3035 12.9935 11.3029 12.7459 12.4031 12.7459H21.04V17.0093H13.0633C12.7699 17.0093 12.504 17.0827 12.2656 17.2294C12.0456 17.3578 11.8714 17.532 11.743 17.752C11.6146 17.972 11.5505 18.2196 11.5505 18.4947C11.5505 18.7697 11.6146 19.0264 11.743 19.2648C11.8714 19.4849 12.0456 19.6682 12.2656 19.8149C12.504 19.9433 12.7699 20.0075 13.0633 20.0075H15.9514C17.2167 20.0075 18.3169 20.2459 19.2521 20.7226C20.2056 21.1994 20.9391 21.8687 21.4525 22.7305C21.966 23.5741 22.2227 24.5734 22.2227 25.7287C22.2227 27.049 21.9477 28.1859 21.3975 29.1394C20.8658 30.0746 20.1414 30.7897 19.2246 31.2848C18.3261 31.7616 17.3267 32 16.2264 32H7.20455ZM34.7301 32C33.5382 32 32.4746 31.7433 31.5394 31.2298C30.6226 30.6981 29.8983 29.9829 29.3665 29.0844C28.853 28.1859 28.5963 27.1773 28.5963 26.0587V17.0093H23.4802V12.7459H38.8835V17.0093H33.8499V26.4163C33.8499 26.7831 33.9783 27.0948 34.235 27.3515C34.4917 27.6082 34.7943 27.7366 35.1427 27.7366H36.8481V32H34.7301ZM40.7496 32V12.7459H49.689C51.0459 12.7459 52.2745 13.0393 53.3747 13.6261C54.475 14.1946 55.3552 14.9923 56.0153 16.0191C56.6754 17.0277 57.0055 18.2104 57.0055 19.5674C57.0055 20.741 56.7213 21.8229 56.1528 22.8131C55.6027 23.7849 54.86 24.5734 53.9249 25.1786L55.2176 27.324C55.3276 27.4891 55.4468 27.6174 55.5752 27.7091C55.7219 27.7824 55.9144 27.8191 56.1528 27.8191H57.6931V32H54.8325C53.9157 32 53.0997 31.7983 52.3845 31.3949C51.6694 30.9731 51.1193 30.4322 50.7342 29.772L48.7813 26.4163C48.6712 26.4163 48.5612 26.4163 48.4512 26.4163C48.3412 26.4163 48.2403 26.4163 48.1486 26.4163H46.0032V32H40.7496ZM46.0032 22.2354H49.1388C49.5973 22.2354 50.019 22.1346 50.4041 21.9329C50.8075 21.7128 51.1193 21.4011 51.3393 20.9977C51.5777 20.5943 51.6969 20.1267 51.6969 19.5949C51.6969 19.0631 51.5777 18.6047 51.3393 18.2196C51.1009 17.8345 50.7892 17.5411 50.4041 17.3394C50.019 17.1194 49.5973 17.0093 49.1388 17.0093H46.0032V22.2354ZM57.9603 32L64.1491 15.0839C64.4975 14.1854 65.0476 13.5161 65.7994 13.076C66.5512 12.6176 67.4039 12.3884 68.3574 12.3884C69.311 12.3884 70.1637 12.6084 70.9155 13.0485C71.6856 13.4886 72.2358 14.1579 72.5658 15.0564L78.7546 32H73.1159L71.9882 28.4793H64.6167L63.4339 32H57.9603ZM65.8544 24.2984H70.7779L68.66 17.3394C68.6417 17.2661 68.605 17.2111 68.55 17.1744C68.495 17.1377 68.4308 17.1194 68.3574 17.1194C68.3024 17.1194 68.2474 17.1377 68.1924 17.1744C68.1557 17.2111 68.1191 17.2661 68.0824 17.3394L65.8544 24.2984ZM79.8057 32V12.7459H88.2499C89.5885 12.7459 90.808 13.0393 91.9082 13.6261C93.0268 14.2129 93.907 15.0289 94.5488 16.0741C95.2089 17.1194 95.539 18.3388 95.539 19.7324C95.539 21.1077 95.2089 22.3271 94.5488 23.3907C93.907 24.4359 93.0268 25.2611 91.9082 25.8662C90.808 26.453 89.5885 26.7464 88.2499 26.7464H85.0593V32H79.8057ZM85.0593 22.5105H87.6723C88.1491 22.5105 88.58 22.4005 88.9651 22.1804C89.3502 21.9604 89.6527 21.6487 89.8728 21.2452C90.1112 20.8235 90.2303 20.3284 90.2303 19.7599C90.2303 19.1731 90.1112 18.678 89.8728 18.2746C89.6527 17.8529 89.341 17.5411 88.9376 17.3394C88.5525 17.1194 88.1307 17.0093 87.6723 17.0093H85.0593V22.5105ZM103.031 32C101.949 32 100.959 31.7616 100.061 31.2848C99.1621 30.7897 98.447 30.1204 97.9152 29.2769C97.4018 28.4151 97.145 27.4432 97.145 26.3613C97.145 25.5361 97.3284 24.7568 97.6952 24.0233C98.0619 23.2898 98.5753 22.6664 99.2355 22.1529C98.6487 21.6578 98.1719 21.071 97.8052 20.3926C97.4568 19.6957 97.2826 18.9806 97.2826 18.2471C97.2826 17.1835 97.5393 16.2392 98.0527 15.414C98.5662 14.5888 99.263 13.9379 100.143 13.4611C101.023 12.9843 101.986 12.7459 103.031 12.7459H111.393V17.0093H104.077C103.746 17.0093 103.444 17.0735 103.169 17.2019C102.912 17.3302 102.701 17.5136 102.536 17.752C102.389 17.9904 102.316 18.2746 102.316 18.6047C102.316 18.9164 102.389 19.1915 102.536 19.4299C102.701 19.6499 102.912 19.8333 103.169 19.98C103.444 20.1083 103.746 20.1725 104.077 20.1725H110.43V24.4084H104.132C103.783 24.4084 103.471 24.4818 103.196 24.6284C102.921 24.7568 102.701 24.9493 102.536 25.2061C102.389 25.4628 102.316 25.7562 102.316 26.0863C102.316 26.4163 102.389 26.7097 102.536 26.9664C102.701 27.2048 102.921 27.3974 103.196 27.5441C103.471 27.6724 103.783 27.7366 104.132 27.7366H111.393V32H103.031ZM112.318 32L117.351 23.7483C116.489 23.3632 115.738 22.8589 115.096 22.2354C114.472 21.612 113.996 20.8877 113.665 20.0625C113.335 19.219 113.17 18.2838 113.17 17.2569V12.7459H118.424V17.532C118.424 17.9354 118.497 18.3021 118.644 18.6322C118.809 18.9623 119.029 19.2373 119.304 19.4574C119.579 19.6774 119.891 19.8241 120.239 19.8975L124.503 12.7459H130.362L125.383 20.8051C126.373 21.1169 127.226 21.5936 127.941 22.2354C128.656 22.8589 129.206 23.6107 129.591 24.4909C129.976 25.3711 130.169 26.3705 130.169 27.4891V32H124.915V27.2415C124.915 26.563 124.695 25.9762 124.255 25.4811C123.833 24.986 123.274 24.7018 122.577 24.6284L118.176 32H112.318Z" fill="#3A06CE"/>
</svg>
