<?xml version="1.0" encoding="utf-8"?>
<svg xmlns="http://www.w3.org/2000/svg" viewBox="0 0 500 500">
  <g style="" transform="matrix(0.9611080288887024, 0, 0, 0.9296410083770752, 9.722992897033691, 17.58974838256836)">
    <path d="M 0 249.999 C 0 388.073 111.925 500 249.996 500 C 388.068 500 500 388.07 500 249.999 C 500 243.553 499.756 237.164 499.277 230.84 C 489.492 101.719 381.621 0 249.996 0 C 111.925 0 0 111.926 0 249.999 Z" fill="#0C0C4F" stroke-width="4" style="stroke: rgb(236, 121, 107); paint-order: fill;"/>
    <path clip-rule="evenodd" d="M 136.867 189.574 L 143.198 170.012 C 144.483 166.031 147.623 162.936 151.616 161.716 L 171.273 155.671 C 173.993 154.839 174.015 151.002 171.318 150.124 L 151.75 143.794 C 147.778 142.509 144.682 139.368 143.454 135.374 L 137.416 115.716 C 136.584 113.004 132.746 112.976 131.873 115.68 L 125.537 135.242 C 124.252 139.212 121.113 142.311 117.119 143.539 L 97.465 149.573 C 94.743 150.414 94.714 154.245 97.417 155.118 L 116.986 161.45 C 120.957 162.738 124.056 165.884 125.282 169.879 L 131.321 189.528 C 132.152 192.248 135.99 192.279 136.867 189.574 Z" fill="#FAFAFA" fill-rule="evenodd" style="stroke: rgb(236, 121, 107); paint-order: fill;"/>
    <path clip-rule="evenodd" d="M 350.913 360.71 C 350.913 376.846 363.999 389.931 380.133 389.931 C 396.27 389.931 409.338 376.846 409.338 360.71 C 409.338 344.576 396.27 331.488 380.133 331.488 C 363.999 331.488 350.913 344.576 350.913 360.71 Z" fill-rule="evenodd" style="fill: rgb(236, 121, 107); paint-order: fill;"/>
    <g style="" transform="matrix(0.591057, 0, -0.009001, 0.591064, 116.018844, 100.60144)">
      <path d="M 408.811 203.532 L 408.811 -3.298 L 232.26 -3.298 L 232.26 196.267 C 232.26 224.489 218.771 250.998 195.961 267.612 L 48.77 374.796 C 18.853 404.713 18.015 452.947 46.881 483.87 C 77.186 516.356 128.377 517.238 159.795 485.83 L 310.076 378.601 C 323.45 369.05 339.595 364.803 356.032 364.768 C 362.061 364.75 368.267 364.026 374.596 362.455 C 406.728 354.501 431.375 326.827 434.835 293.909 C 436.962 273.756 431.507 254.979 421.011 239.972 C 413.464 229.203 408.811 216.685 408.811 203.532" style="fill: rgb(250, 250, 250); paint-order: fill;"/>
      <g>
        <polygon points="232.26 84.974 408.811 84.974 408.811 49.664 232.26 49.664" style="fill: rgb(236, 121, 107); paint-order: fill;"/>
        <path d="M 311.708 305.667 C 311.708 330.049 322.716 351.826 340 366.401 C 345.261 365.439 350.602 364.777 356.031 364.768 C 362.06 364.75 368.266 364.026 374.595 362.455 C 406.727 354.501 431.374 326.827 434.834 293.909 C 436.961 273.756 431.506 254.979 421.01 239.972 C 418.777 236.785 416.896 233.413 415.219 229.953 C 407.618 227.534 399.541 226.219 391.155 226.219 C 347.274 226.218 311.708 261.785 311.708 305.667" style="fill: rgb(236, 121, 107); paint-order: fill;"/>
        <path d="M 47.393 376.313 C 18.898 406.318 18.491 453.448 46.881 483.877 C 74.891 513.891 120.715 516.857 152.3 492.343 C 152.618 489.015 152.812 485.634 152.812 482.218 C 152.812 423.885 105.664 376.595 47.393 376.313" style="fill: rgb(236, 121, 107); paint-order: fill;"/>
        <path d="M 373.501 23.184 C 378.374 23.184 382.329 19.229 382.329 14.356 L 382.329 -3.299 L 364.674 -3.299 L 364.674 14.356 C 364.674 19.229 368.628 23.184 373.501 23.184" style="fill: rgb(236, 121, 107); paint-order: fill;"/>
        <path d="M 338.191 23.184 C 343.064 23.184 347.019 19.229 347.019 14.356 L 347.019 -3.299 L 329.364 -3.299 L 329.364 14.356 C 329.363 19.229 333.318 23.184 338.191 23.184" style="fill: rgb(236, 121, 107); paint-order: fill;"/>
        <path d="M 302.88 23.184 C 307.753 23.184 311.708 19.229 311.708 14.356 L 311.708 -3.299 L 294.053 -3.299 L 294.053 14.356 C 294.053 19.229 298.008 23.184 302.88 23.184" style="fill: rgb(236, 121, 107); paint-order: fill;"/>
        <path d="M 267.57 23.184 C 272.443 23.184 276.398 19.229 276.398 14.356 L 276.398 -3.299 L 258.743 -3.299 L 258.743 14.356 C 258.743 19.229 262.697 23.184 267.57 23.184" style="fill: rgb(236, 121, 107); paint-order: fill;"/>
      </g>
    </g>
  </g>
</svg>